HIERARCHY
ROOT Junyuan_V1:Solving:Hips
{
	OFFSET 0.000000 0.000000 0.000000
	CHANNELS 6 Xposition Yposition Zposition Xrotation Yrotation Zrotation
	JOINT Junyuan_V1:Solving:Spine
	{
		OFFSET 0.000000 -12.985630 2.462989
		CHANNELS 6 Xposition Yposition Zposition Xrotation Yrotation Zrotation
		JOINT Junyuan_V1:Solving:Spine1
		{
			OFFSET 0.000000 -8.692390 1.532706
			CHANNELS 6 Xposition Yposition Zposition Xrotation Yrotation Zrotation
			JOINT Junyuan_V1:Solving:Spine2
			{
				OFFSET 0.000000 -8.792902 0.769282
				CHANNELS 6 Xposition Yposition Zposition Xrotation Yrotation Zrotation
				JOINT Junyuan_V1:Solving:Spine3
				{
					OFFSET 0.000000 -8.826483 0.000000
					CHANNELS 6 Xposition Yposition Zposition Xrotation Yrotation Zrotation
					JOINT Junyuan_V1:Solving:Neck
					{
						OFFSET 0.000000 -11.348343 -1.134832
						CHANNELS 6 Xposition Yposition Zposition Xrotation Yrotation Zrotation
						JOINT Junyuan_V1:Solving:Neck1
						{
							OFFSET 0.000000 -7.624485 -0.667056
							CHANNELS 6 Xposition Yposition Zposition Xrotation Yrotation Zrotation
							JOINT Junyuan_V1:Solving:Head
							{
								OFFSET 0.000000 -7.537346 -1.329035
								CHANNELS 6 Xposition Yposition Zposition Xrotation Yrotation Zrotation
								JOINT Junyuan_V1:Solving:HeadEnd
								{
									OFFSET 0.000000 -9.728073 0.000003
									CHANNELS 6 Xposition Yposition Zposition Xrotation Yrotation Zrotation
									End Site
									{
										OFFSET 0.000000 -9.728081 0.000002
									}
								}
							}
						}
					}
					JOINT Junyuan_V1:Solving:RightShoulder
					{
						OFFSET 0.000000 -8.105961 -5.517343
						CHANNELS 6 Xposition Yposition Zposition Xrotation Yrotation Zrotation
						JOINT Junyuan_V1:Solving:RightArm
						{
							OFFSET -18.898018 -0.000008 0.000000
							CHANNELS 6 Xposition Yposition Zposition Xrotation Yrotation Zrotation
							JOINT Junyuan_V1:Solving:RightForeArm
							{
								OFFSET -28.740982 -0.000008 0.000000
								CHANNELS 6 Xposition Yposition Zposition Xrotation Yrotation Zrotation
								JOINT Junyuan_V1:Solving:RightHand
								{
									OFFSET -20.953522 -0.000008 0.000000
									CHANNELS 6 Xposition Yposition Zposition Xrotation Yrotation Zrotation
									JOINT Junyuan_V1:Solving:RightHandThumb1
									{
										OFFSET -4.628059 2.916191 -3.441377
										CHANNELS 6 Xposition Yposition Zposition Xrotation Yrotation Zrotation
										End Site
										{
											OFFSET -6.617699 -0.000004 -6.678891
										}
									}
									JOINT Junyuan_V1:Solving:RightHandMiddle1
									{
										OFFSET -12.341492 -0.000004 0.079112
										CHANNELS 6 Xposition Yposition Zposition Xrotation Yrotation Zrotation
										End Site
										{
											OFFSET -9.402214 -0.000004 0.000000
										}
									}
								}
							}
						}
					}
					JOINT Junyuan_V1:Solving:LeftShoulder
					{
						OFFSET 0.000000 -8.105961 -5.517343
						CHANNELS 6 Xposition Yposition Zposition Xrotation Yrotation Zrotation
						JOINT Junyuan_V1:Solving:LeftArm
						{
							OFFSET 18.898018 -0.000008 0.000000
							CHANNELS 6 Xposition Yposition Zposition Xrotation Yrotation Zrotation
							JOINT Junyuan_V1:Solving:LeftForeArm
							{
								OFFSET 28.740982 -0.000008 0.000000
								CHANNELS 6 Xposition Yposition Zposition Xrotation Yrotation Zrotation
								JOINT Junyuan_V1:Solving:LeftHand
								{
									OFFSET 20.953522 -0.000008 0.000000
									CHANNELS 6 Xposition Yposition Zposition Xrotation Yrotation Zrotation
									JOINT Junyuan_V1:Solving:LeftHandThumb1
									{
										OFFSET 4.628059 2.916191 -3.441377
										CHANNELS 6 Xposition Yposition Zposition Xrotation Yrotation Zrotation
										End Site
										{
											OFFSET 6.617699 -0.000004 -6.678891
										}
									}
									JOINT Junyuan_V1:Solving:LeftHandMiddle1
									{
										OFFSET 12.341492 -0.000004 0.079112
										CHANNELS 6 Xposition Yposition Zposition Xrotation Yrotation Zrotation
										End Site
										{
											OFFSET 9.402214 -0.000004 0.000000
										}
									}
								}
							}
						}
					}
				}
			}
		}
	}
	JOINT Junyuan_V1:Solving:RightUpLeg
	{
		OFFSET -11.141669 0.000000 0.000000
		CHANNELS 6 Xposition Yposition Zposition Xrotation Yrotation Zrotation
		JOINT Junyuan_V1:Solving:RightLeg
		{
			OFFSET 0.000000 42.399242 -0.000006
			CHANNELS 6 Xposition Yposition Zposition Xrotation Yrotation Zrotation
			JOINT Junyuan_V1:Solving:RightFoot
			{
				OFFSET 0.000000 39.245022 -0.000006
				CHANNELS 6 Xposition Yposition Zposition Xrotation Yrotation Zrotation
				JOINT Junyuan_V1:Solving:RightForeFoot
				{
					OFFSET 0.000000 3.261009 -0.000000
					CHANNELS 6 Xposition Yposition Zposition Xrotation Yrotation Zrotation
					JOINT Junyuan_V1:Solving:RightToeBase
					{
						OFFSET 0.000000 0.000000 -12.771147
						CHANNELS 6 Xposition Yposition Zposition Xrotation Yrotation Zrotation
						JOINT Junyuan_V1:Solving:RightToeBaseEnd
						{
							OFFSET 0.000000 0.000000 -4.049008
							CHANNELS 6 Xposition Yposition Zposition Xrotation Yrotation Zrotation
							End Site
							{
								OFFSET 0.000000 -4.049011 0.000000
							}
						}
					}
				}
			}
		}
	}
	JOINT Junyuan_V1:Solving:LeftUpLeg
	{
		OFFSET 11.141669 0.000000 0.000000
		CHANNELS 6 Xposition Yposition Zposition Xrotation Yrotation Zrotation
		JOINT Junyuan_V1:Solving:LeftLeg
		{
			OFFSET 0.000000 42.399242 -0.000006
			CHANNELS 6 Xposition Yposition Zposition Xrotation Yrotation Zrotation
			JOINT Junyuan_V1:Solving:LeftFoot
			{
				OFFSET 0.000000 39.245022 -0.000006
				CHANNELS 6 Xposition Yposition Zposition Xrotation Yrotation Zrotation
				JOINT Junyuan_V1:Solving:LeftForeFoot
				{
					OFFSET 0.000000 3.261009 -0.000000
					CHANNELS 6 Xposition Yposition Zposition Xrotation Yrotation Zrotation
					JOINT Junyuan_V1:Solving:LeftToeBase
					{
						OFFSET 0.000000 0.000000 -12.771147
						CHANNELS 6 Xposition Yposition Zposition Xrotation Yrotation Zrotation
						JOINT Junyuan_V1:Solving:LeftToeBaseEnd
						{
							OFFSET 0.000000 0.000000 -2.960146
							CHANNELS 6 Xposition Yposition Zposition Xrotation Yrotation Zrotation
							End Site
							{
								OFFSET 0.000000 -2.960144 0.000002
							}
						}
					}
				}
			}
		}
	}
}
MOTION
Frames: 4
Frame Time: 0.041667
-11.229632 57.408470 -79.768127 48.478347 170.792596 -1.632840 0.000001 -12.985642 2.462986 12.971100 -0.015839 0.679638 0.000002 -8.692390 1.532697 13.253452 0.133945 1.767983 -0.000002 -8.792911 0.769275 14.053941 -0.809185 -8.118664 -0.000002 -8.826487 -0.000014 -8.553630 -0.146470 -2.536248 0.000001 -11.348334 -1.134832 -27.527240 -4.787528 10.398272 0.000001 -7.624493 -0.667057 18.100428 4.171254 -6.440579 0.000002 -7.537358 -1.329026 2.991854 0.395779 -0.488171 0.000001 -9.728081 0.000003 0.000002 0.000000 -0.000000 -0.000000 -8.105949 -5.517345 -0.000000 2.871860 23.238752 -18.898018 0.000000 0.000016 -67.235132 -3.828681 -85.262857 -28.740969 -0.000013 0.000007 -18.782395 -23.390826 -7.689241 -20.953524 -0.000004 0.000004 1.208665 -6.295187 10.891352 -4.628062 2.916203 -3.441370 0.000002 -0.000007 -0.000005 -12.341459 -0.000002 0.079116 -0.000001 -0.000003 0.000002 -0.000002 -8.105957 -5.517346 -0.000001 -3.352456 -14.793013 18.898010 -0.000001 -0.000003 -78.112229 42.574721 91.937427 28.740974 -0.000009 -0.000005 -52.114897 4.106479 5.258493 20.953520 0.000000 -0.000004 4.796673 13.873192 -19.288523 4.628073 2.916207 -3.441362 -0.000003 0.000002 -0.000002 12.341477 0.000004 0.079115 -0.000002 -0.000001 0.000001 -11.141669 -0.000004 -0.000009 -86.599176 11.692020 25.762570 0.000001 42.399265 -0.000021 56.444694 -0.000002 -0.000005 -0.000005 39.245026 -0.000010 -9.017042 -9.655274 -11.638127 -0.000003 3.261009 -0.000005 0.000000 -0.000001 -0.000000 0.000003 0.000005 -12.771155 7.872310 0.000004 0.000001 -0.000001 0.000000 -4.049012 0.000002 -0.000001 -0.000000 11.141672 -0.000004 -0.000005 -90.012768 -32.812464 -20.861233 -0.000003 42.399239 -0.000010 55.131655 -0.000003 0.000001 0.000027 39.245010 -0.000011 3.971770 2.472540 0.638033 -0.000001 3.261009 -0.000008 0.000002 0.000002 -0.000001 -0.000002 -0.000016 -12.771146 -5.506978 -0.000003 0.000000 0.000006 -0.000000 -2.960144 -0.000001 -0.000000 0.000001 
-11.403199 57.461884 -79.979034 48.152526 170.753350 -1.880725 0.000005 -12.985629 2.462996 12.817432 0.015125 0.680143 0.000001 -8.692389 1.532710 13.269435 0.124837 1.755796 -0.000003 -8.792903 0.769279 13.837924 -0.703854 -7.810118 -0.000003 -8.826483 0.000002 -8.406560 -0.077928 -2.649378 0.000001 -11.348330 -1.134837 -27.949353 -4.850984 10.364366 0.000001 -7.624511 -0.667076 18.516750 4.316680 -6.339268 0.000002 -7.537350 -1.329033 2.830306 0.397127 -0.405597 0.000001 -9.728073 0.000010 0.000001 0.000001 -0.000000 0.000007 -8.105949 -5.517361 0.000000 2.841215 23.057037 -18.898018 -0.000012 0.000007 -67.373095 -4.339592 -85.432177 -28.740986 -0.000005 0.000008 -19.562321 -23.892610 -8.189912 -20.953514 -0.000003 0.000003 1.145855 -5.595395 11.592724 -4.628085 2.916204 -3.441374 -0.000001 0.000005 -0.000003 -12.341484 -0.000001 0.079113 -0.000001 -0.000001 0.000000 0.000005 -8.105953 -5.517361 -0.000000 -3.715877 -14.848922 18.898016 0.000005 -0.000008 -78.111020 42.365416 91.853600 28.741001 -0.000012 0.000013 -51.586653 4.219403 5.301021 20.953531 -0.000003 0.000003 4.624481 13.374380 -19.274278 4.628076 2.916207 -3.441376 -0.000001 -0.000005 0.000001 12.341475 -0.000002 0.079115 0.000003 -0.000003 -0.000001 -11.141665 -0.000000 0.000010 -86.755062 11.754245 25.969037 0.000004 42.399246 -0.000009 55.716110 -0.000004 -0.000005 -0.000009 39.245003 -0.000008 -9.475685 -9.154620 -12.950045 0.000003 3.261009 0.000009 -0.000000 -0.000000 -0.000000 -0.000002 0.000010 -12.771136 10.917278 0.000000 0.000001 0.000000 0.000000 -4.049005 -0.000000 -0.000001 -0.000002 11.141676 -0.000006 0.000011 -90.299868 -32.486087 -21.041735 -0.000002 42.399235 -0.000029 55.012188 -0.000009 -0.000000 0.000002 39.245018 -0.000006 3.514548 4.683574 0.495642 0.000005 3.261009 0.000001 0.000001 0.000007 -0.000001 0.000003 0.000004 -12.771147 -8.140210 0.000003 -0.000000 -0.000006 0.000000 -2.960137 0.000000 0.000002 -0.000001 
-11.603697 57.469460 -80.176140 47.914289 170.668136 -2.051686 0.000001 -12.985628 2.463001 12.769410 0.014405 0.753065 0.000001 -8.692386 1.532710 13.322206 0.099599 1.818836 0.000001 -8.792894 0.769284 13.567575 -0.736057 -7.936168 -0.000001 -8.826483 0.000013 -8.397906 -0.153825 -2.876964 0.000000 -11.348348 -1.134825 -28.130937 -4.786927 10.579405 0.000002 -7.624500 -0.667057 18.740460 4.382188 -6.080222 -0.000000 -7.537349 -1.329051 2.714855 0.394100 -0.332097 -0.000001 -9.728081 0.000000 0.000001 0.000000 0.000000 -0.000001 -8.105965 -5.517344 0.000002 3.231493 22.905987 -18.898016 -0.000009 0.000031 -67.736946 -5.275896 -85.577742 -28.740978 -0.000008 0.000001 -22.038910 -23.570049 -9.194938 -20.953529 -0.000004 -0.000000 1.163103 -6.194599 10.655751 -4.628066 2.916202 -3.441370 -0.000004 0.000007 0.000002 -12.341469 0.000004 0.079108 -0.000000 -0.000000 -0.000000 0.000001 -8.105961 -5.517343 0.000000 -3.880986 -14.425117 18.898020 0.000004 0.000002 -78.135363 42.207287 92.032079 28.740963 -0.000006 0.000007 -46.612920 4.877348 5.139913 20.953512 0.000001 0.000003 4.369234 10.237893 -23.262060 4.628055 2.916215 -3.441372 -0.000005 -0.000003 0.000004 12.341453 0.000012 0.079116 0.000002 0.000004 -0.000001 -11.141670 -0.000011 0.000016 -86.735240 11.710665 26.229603 -0.000002 42.399258 -0.000021 55.055389 -0.000003 -0.000002 -0.000003 39.245029 -0.000011 -9.620188 -9.310583 -13.512691 -0.000001 3.261002 0.000012 0.000000 -0.000001 -0.000001 -0.000002 0.000011 -12.771139 12.164219 0.000004 -0.000000 -0.000001 -0.000000 -4.049007 0.000001 0.000001 0.000000 11.141668 0.000001 0.000006 -90.363847 -32.053675 -21.115602 -0.000008 42.399227 -0.000015 54.698371 -0.000002 -0.000002 0.000008 39.244995 -0.000001 2.884144 5.645264 0.497987 0.000008 3.261009 -0.000002 -0.000000 0.000002 -0.000002 0.000000 -0.000014 -12.771140 -9.183810 0.000006 -0.000001 -0.000006 -0.000000 -2.960140 0.000000 0.000008 0.000000 
-11.825739 57.407978 -80.370537 47.901404 170.494267 -2.092204 -0.000001 -12.985635 2.463000 12.837123 0.028416 0.746049 0.000001 -8.692389 1.532718 13.327462 0.107398 1.832565 0.000000 -8.792908 0.769274 13.598001 -0.811463 -8.398800 0.000001 -8.826493 -0.000001 -8.439751 -0.254713 -2.803197 -0.000009 -11.348347 -1.134866 -28.567229 -4.996505 11.371303 -0.000001 -7.624497 -0.667071 19.189647 4.338107 -6.608897 0.000001 -7.537356 -1.329028 2.810984 0.397446 -0.384799 0.000001 -9.728065 -0.000005 -0.000002 0.000001 -0.000000 -0.000006 -8.105957 -5.517375 -0.000001 3.711491 22.869896 -18.898012 -0.000004 0.000006 -68.186830 -5.888074 -85.739583 -28.740986 -0.000008 0.000002 -19.643715 -23.622809 -8.139946 -20.953505 -0.000005 -0.000002 1.137541 -5.933650 10.872848 -4.628068 2.916202 -3.441376 0.000000 -0.000002 -0.000001 -12.341468 -0.000000 0.079106 -0.000000 -0.000000 0.000001 -0.000001 -8.105965 -5.517360 0.000003 -4.239902 -12.329625 18.898020 0.000010 -0.000002 -79.851789 45.027896 92.374122 28.740993 0.000004 0.000004 -47.610240 3.527002 3.855667 20.953508 0.000009 0.000006 4.265098 10.607630 -22.054486 4.628067 2.916207 -3.441375 0.000006 -0.000009 -0.000000 12.341482 0.000002 0.079107 -0.000000 -0.000002 -0.000002 -11.141671 0.000004 0.000004 -86.543783 11.914859 26.644898 0.000001 42.399231 -0.000024 54.498940 0.000001 -0.000004 -0.000002 39.245014 -0.000006 -9.510597 -9.618026 -13.640873 0.000007 3.261009 0.000013 0.000000 0.000001 0.000000 0.000001 -0.000010 -12.771155 12.113743 0.000003 0.000001 -0.000001 -0.000007 -4.049010 0.000002 0.000002 -0.000002 11.141668 -0.000022 0.000003 -90.020739 -31.447779 -21.033848 0.000006 42.399239 -0.000010 54.116900 -0.000007 -0.000000 0.000003 39.245033 -0.000015 2.350514 5.302214 0.879196 0.000005 3.261001 -0.000007 -0.000000 0.000004 -0.000002 0.000010 0.000001 -12.771139 -8.852216 -0.000007 -0.000001 -0.000007 -0.000000 -2.960144 -0.000001 -0.000001 0.000000 
